<?xml version="1.0" encoding="UTF-8"?>
<svg xmlns="http://www.w3.org/2000/svg" xmlns:xlink="http://www.w3.org/1999/xlink" width="375pt" height="374.999991pt" viewBox="0 0 375 374.999991" version="1.2">
<defs>
<filter id="alpha" filterUnits="objectBoundingBox" x="0%" y="0%" width="100%" height="100%">
  <feColorMatrix type="matrix" in="SourceGraphic" values="0 0 0 0 1 0 0 0 0 1 0 0 0 0 1 0 0 0 1 0"/>
</filter>
<mask id="mask0">
  <g filter="url(#alpha)">
<rect x="0" y="0" width="375" height="374.999991" style="fill:rgb(0%,0%,0%);fill-opacity:0.7765;stroke:none;"/>
  </g>
</mask>
<clipPath id="clip2">
  <path d="M 93 33 L 104 33 L 104 60 L 93 60 Z M 93 33 "/>
</clipPath>
<clipPath id="clip3">
  <path d="M 82.136719 -0.921875 L 124.710938 75.808594 L 41.421875 122.019531 L -1.152344 45.289062 Z M 82.136719 -0.921875 "/>
</clipPath>
<clipPath id="clip4">
  <path d="M 82.136719 -0.921875 L 124.710938 75.808594 L 41.421875 122.019531 L -1.152344 45.289062 Z M 82.136719 -0.921875 "/>
</clipPath>
<clipPath id="clip5">
  <path d="M 67 52 L 95 52 L 95 69 L 67 69 Z M 67 52 "/>
</clipPath>
<clipPath id="clip6">
  <path d="M 82.136719 -0.921875 L 124.710938 75.808594 L 41.421875 122.019531 L -1.152344 45.289062 Z M 82.136719 -0.921875 "/>
</clipPath>
<clipPath id="clip7">
  <path d="M 82.136719 -0.921875 L 124.710938 75.808594 L 41.421875 122.019531 L -1.152344 45.289062 Z M 82.136719 -0.921875 "/>
</clipPath>
<clipPath id="clip8">
  <path d="M 64 42 L 79 42 L 79 61 L 64 61 Z M 64 42 "/>
</clipPath>
<clipPath id="clip9">
  <path d="M 82.136719 -0.921875 L 124.710938 75.808594 L 41.421875 122.019531 L -1.152344 45.289062 Z M 82.136719 -0.921875 "/>
</clipPath>
<clipPath id="clip10">
  <path d="M 82.136719 -0.921875 L 124.710938 75.808594 L 41.421875 122.019531 L -1.152344 45.289062 Z M 82.136719 -0.921875 "/>
</clipPath>
<clipPath id="clip11">
  <path d="M 78 31 L 98 31 L 98 41 L 78 41 Z M 78 31 "/>
</clipPath>
<clipPath id="clip12">
  <path d="M 82.136719 -0.921875 L 124.710938 75.808594 L 41.421875 122.019531 L -1.152344 45.289062 Z M 82.136719 -0.921875 "/>
</clipPath>
<clipPath id="clip13">
  <path d="M 82.136719 -0.921875 L 124.710938 75.808594 L 41.421875 122.019531 L -1.152344 45.289062 Z M 82.136719 -0.921875 "/>
</clipPath>
<clipPath id="clip14">
  <path d="M 73 39 L 81 39 L 81 48 L 73 48 Z M 73 39 "/>
</clipPath>
<clipPath id="clip15">
  <path d="M 82.136719 -0.921875 L 124.710938 75.808594 L 41.421875 122.019531 L -1.152344 45.289062 Z M 82.136719 -0.921875 "/>
</clipPath>
<clipPath id="clip16">
  <path d="M 82.136719 -0.921875 L 124.710938 75.808594 L 41.421875 122.019531 L -1.152344 45.289062 Z M 82.136719 -0.921875 "/>
</clipPath>
<clipPath id="clip17">
  <path d="M 85 44 L 98 44 L 98 59 L 85 59 Z M 85 44 "/>
</clipPath>
<clipPath id="clip18">
  <path d="M 82.136719 -0.921875 L 124.710938 75.808594 L 41.421875 122.019531 L -1.152344 45.289062 Z M 82.136719 -0.921875 "/>
</clipPath>
<clipPath id="clip19">
  <path d="M 82.136719 -0.921875 L 124.710938 75.808594 L 41.421875 122.019531 L -1.152344 45.289062 Z M 82.136719 -0.921875 "/>
</clipPath>
<clipPath id="clip20">
  <path d="M 83 55 L 88 55 L 88 61 L 83 61 Z M 83 55 "/>
</clipPath>
<clipPath id="clip21">
  <path d="M 82.136719 -0.921875 L 124.710938 75.808594 L 41.421875 122.019531 L -1.152344 45.289062 Z M 82.136719 -0.921875 "/>
</clipPath>
<clipPath id="clip22">
  <path d="M 82.136719 -0.921875 L 124.710938 75.808594 L 41.421875 122.019531 L -1.152344 45.289062 Z M 82.136719 -0.921875 "/>
</clipPath>
<clipPath id="clip23">
  <path d="M 71 51 L 84 51 L 84 58 L 71 58 Z M 71 51 "/>
</clipPath>
<clipPath id="clip24">
  <path d="M 82.136719 -0.921875 L 124.710938 75.808594 L 41.421875 122.019531 L -1.152344 45.289062 Z M 82.136719 -0.921875 "/>
</clipPath>
<clipPath id="clip25">
  <path d="M 82.136719 -0.921875 L 124.710938 75.808594 L 41.421875 122.019531 L -1.152344 45.289062 Z M 82.136719 -0.921875 "/>
</clipPath>
<clipPath id="clip26">
  <path d="M 69 52 L 73 52 L 73 58 L 69 58 Z M 69 52 "/>
</clipPath>
<clipPath id="clip27">
  <path d="M 82.136719 -0.921875 L 124.710938 75.808594 L 41.421875 122.019531 L -1.152344 45.289062 Z M 82.136719 -0.921875 "/>
</clipPath>
<clipPath id="clip28">
  <path d="M 82.136719 -0.921875 L 124.710938 75.808594 L 41.421875 122.019531 L -1.152344 45.289062 Z M 82.136719 -0.921875 "/>
</clipPath>
<clipPath id="clip29">
  <path d="M 77 39 L 89 39 L 89 52 L 77 52 Z M 77 39 "/>
</clipPath>
<clipPath id="clip30">
  <path d="M 82.136719 -0.921875 L 124.710938 75.808594 L 41.421875 122.019531 L -1.152344 45.289062 Z M 82.136719 -0.921875 "/>
</clipPath>
<clipPath id="clip31">
  <path d="M 82.136719 -0.921875 L 124.710938 75.808594 L 41.421875 122.019531 L -1.152344 45.289062 Z M 82.136719 -0.921875 "/>
</clipPath>
<clipPath id="clip32">
  <path d="M 94 36 L 99 36 L 99 39 L 94 39 Z M 94 36 "/>
</clipPath>
<clipPath id="clip33">
  <path d="M 82.136719 -0.921875 L 124.710938 75.808594 L 41.421875 122.019531 L -1.152344 45.289062 Z M 82.136719 -0.921875 "/>
</clipPath>
<clipPath id="clip34">
  <path d="M 82.136719 -0.921875 L 124.710938 75.808594 L 41.421875 122.019531 L -1.152344 45.289062 Z M 82.136719 -0.921875 "/>
</clipPath>
<clipPath id="clip35">
  <path d="M 93 39 L 102 39 L 102 44 L 93 44 Z M 93 39 "/>
</clipPath>
<clipPath id="clip36">
  <path d="M 82.136719 -0.921875 L 124.710938 75.808594 L 41.421875 122.019531 L -1.152344 45.289062 Z M 82.136719 -0.921875 "/>
</clipPath>
<clipPath id="clip37">
  <path d="M 82.136719 -0.921875 L 124.710938 75.808594 L 41.421875 122.019531 L -1.152344 45.289062 Z M 82.136719 -0.921875 "/>
</clipPath>
<clipPath id="clip38">
  <path d="M 88 36 L 95 36 L 95 43 L 88 43 Z M 88 36 "/>
</clipPath>
<clipPath id="clip39">
  <path d="M 82.136719 -0.921875 L 124.710938 75.808594 L 41.421875 122.019531 L -1.152344 45.289062 Z M 82.136719 -0.921875 "/>
</clipPath>
<clipPath id="clip40">
  <path d="M 82.136719 -0.921875 L 124.710938 75.808594 L 41.421875 122.019531 L -1.152344 45.289062 Z M 82.136719 -0.921875 "/>
</clipPath>
<clipPath id="clip41">
  <path d="M 87 36 L 91 36 L 91 39 L 87 39 Z M 87 36 "/>
</clipPath>
<clipPath id="clip42">
  <path d="M 82.136719 -0.921875 L 124.710938 75.808594 L 41.421875 122.019531 L -1.152344 45.289062 Z M 82.136719 -0.921875 "/>
</clipPath>
<clipPath id="clip43">
  <path d="M 82.136719 -0.921875 L 124.710938 75.808594 L 41.421875 122.019531 L -1.152344 45.289062 Z M 82.136719 -0.921875 "/>
</clipPath>
<clipPath id="clip44">
  <path d="M 95 48 L 101 48 L 101 54 L 95 54 Z M 95 48 "/>
</clipPath>
<clipPath id="clip45">
  <path d="M 82.136719 -0.921875 L 124.710938 75.808594 L 41.421875 122.019531 L -1.152344 45.289062 Z M 82.136719 -0.921875 "/>
</clipPath>
<clipPath id="clip46">
  <path d="M 82.136719 -0.921875 L 124.710938 75.808594 L 41.421875 122.019531 L -1.152344 45.289062 Z M 82.136719 -0.921875 "/>
</clipPath>
<clipPath id="clip47">
  <path d="M 78 38 L 86 38 L 86 41 L 78 41 Z M 78 38 "/>
</clipPath>
<clipPath id="clip48">
  <path d="M 82.136719 -0.921875 L 124.710938 75.808594 L 41.421875 122.019531 L -1.152344 45.289062 Z M 82.136719 -0.921875 "/>
</clipPath>
<clipPath id="clip49">
  <path d="M 82.136719 -0.921875 L 124.710938 75.808594 L 41.421875 122.019531 L -1.152344 45.289062 Z M 82.136719 -0.921875 "/>
</clipPath>
<clipPath id="clip50">
  <path d="M 68 8 L 93 8 L 93 25 L 68 25 Z M 68 8 "/>
</clipPath>
<clipPath id="clip51">
  <path d="M 82.136719 -0.921875 L 124.710938 75.808594 L 41.421875 122.019531 L -1.152344 45.289062 Z M 82.136719 -0.921875 "/>
</clipPath>
<clipPath id="clip52">
  <path d="M 82.136719 -0.921875 L 124.710938 75.808594 L 41.421875 122.019531 L -1.152344 45.289062 Z M 82.136719 -0.921875 "/>
</clipPath>
<clipPath id="clip53">
  <path d="M 48 11 L 73 11 L 73 35 L 48 35 Z M 48 11 "/>
</clipPath>
<clipPath id="clip54">
  <path d="M 82.136719 -0.921875 L 124.710938 75.808594 L 41.421875 122.019531 L -1.152344 45.289062 Z M 82.136719 -0.921875 "/>
</clipPath>
<clipPath id="clip55">
  <path d="M 82.136719 -0.921875 L 124.710938 75.808594 L 41.421875 122.019531 L -1.152344 45.289062 Z M 82.136719 -0.921875 "/>
</clipPath>
<clipPath id="clip56">
  <path d="M 52 27 L 73 27 L 73 42 L 52 42 Z M 52 27 "/>
</clipPath>
<clipPath id="clip57">
  <path d="M 82.136719 -0.921875 L 124.710938 75.808594 L 41.421875 122.019531 L -1.152344 45.289062 Z M 82.136719 -0.921875 "/>
</clipPath>
<clipPath id="clip58">
  <path d="M 82.136719 -0.921875 L 124.710938 75.808594 L 41.421875 122.019531 L -1.152344 45.289062 Z M 82.136719 -0.921875 "/>
</clipPath>
<clipPath id="clip59">
  <path d="M 75 21 L 92 21 L 92 37 L 75 37 Z M 75 21 "/>
</clipPath>
<clipPath id="clip60">
  <path d="M 82.136719 -0.921875 L 124.710938 75.808594 L 41.421875 122.019531 L -1.152344 45.289062 Z M 82.136719 -0.921875 "/>
</clipPath>
<clipPath id="clip61">
  <path d="M 82.136719 -0.921875 L 124.710938 75.808594 L 41.421875 122.019531 L -1.152344 45.289062 Z M 82.136719 -0.921875 "/>
</clipPath>
<clipPath id="clip62">
  <path d="M 67 34 L 78 34 L 78 38 L 67 38 Z M 67 34 "/>
</clipPath>
<clipPath id="clip63">
  <path d="M 82.136719 -0.921875 L 124.710938 75.808594 L 41.421875 122.019531 L -1.152344 45.289062 Z M 82.136719 -0.921875 "/>
</clipPath>
<clipPath id="clip64">
  <path d="M 82.136719 -0.921875 L 124.710938 75.808594 L 41.421875 122.019531 L -1.152344 45.289062 Z M 82.136719 -0.921875 "/>
</clipPath>
<clipPath id="clip65">
  <path d="M 65 14 L 81 14 L 81 25 L 65 25 Z M 65 14 "/>
</clipPath>
<clipPath id="clip66">
  <path d="M 82.136719 -0.921875 L 124.710938 75.808594 L 41.421875 122.019531 L -1.152344 45.289062 Z M 82.136719 -0.921875 "/>
</clipPath>
<clipPath id="clip67">
  <path d="M 82.136719 -0.921875 L 124.710938 75.808594 L 41.421875 122.019531 L -1.152344 45.289062 Z M 82.136719 -0.921875 "/>
</clipPath>
<clipPath id="clip68">
  <path d="M 61 19 L 68 19 L 68 22 L 61 22 Z M 61 19 "/>
</clipPath>
<clipPath id="clip69">
  <path d="M 82.136719 -0.921875 L 124.710938 75.808594 L 41.421875 122.019531 L -1.152344 45.289062 Z M 82.136719 -0.921875 "/>
</clipPath>
<clipPath id="clip70">
  <path d="M 82.136719 -0.921875 L 124.710938 75.808594 L 41.421875 122.019531 L -1.152344 45.289062 Z M 82.136719 -0.921875 "/>
</clipPath>
<clipPath id="clip71">
  <path d="M 59 23 L 69 23 L 69 35 L 59 35 Z M 59 23 "/>
</clipPath>
<clipPath id="clip72">
  <path d="M 82.136719 -0.921875 L 124.710938 75.808594 L 41.421875 122.019531 L -1.152344 45.289062 Z M 82.136719 -0.921875 "/>
</clipPath>
<clipPath id="clip73">
  <path d="M 82.136719 -0.921875 L 124.710938 75.808594 L 41.421875 122.019531 L -1.152344 45.289062 Z M 82.136719 -0.921875 "/>
</clipPath>
<clipPath id="clip74">
  <path d="M 57 32 L 62 32 L 62 37 L 57 37 Z M 57 32 "/>
</clipPath>
<clipPath id="clip75">
  <path d="M 82.136719 -0.921875 L 124.710938 75.808594 L 41.421875 122.019531 L -1.152344 45.289062 Z M 82.136719 -0.921875 "/>
</clipPath>
<clipPath id="clip76">
  <path d="M 82.136719 -0.921875 L 124.710938 75.808594 L 41.421875 122.019531 L -1.152344 45.289062 Z M 82.136719 -0.921875 "/>
</clipPath>
<clipPath id="clip77">
  <path d="M 65 27 L 82 27 L 82 33 L 65 33 Z M 65 27 "/>
</clipPath>
<clipPath id="clip78">
  <path d="M 82.136719 -0.921875 L 124.710938 75.808594 L 41.421875 122.019531 L -1.152344 45.289062 Z M 82.136719 -0.921875 "/>
</clipPath>
<clipPath id="clip79">
  <path d="M 82.136719 -0.921875 L 124.710938 75.808594 L 41.421875 122.019531 L -1.152344 45.289062 Z M 82.136719 -0.921875 "/>
</clipPath>
<clipPath id="clip80">
  <path d="M 87 19 L 90 19 L 90 24 L 87 24 Z M 87 19 "/>
</clipPath>
<clipPath id="clip81">
  <path d="M 82.136719 -0.921875 L 124.710938 75.808594 L 41.421875 122.019531 L -1.152344 45.289062 Z M 82.136719 -0.921875 "/>
</clipPath>
<clipPath id="clip82">
  <path d="M 82.136719 -0.921875 L 124.710938 75.808594 L 41.421875 122.019531 L -1.152344 45.289062 Z M 82.136719 -0.921875 "/>
</clipPath>
<clipPath id="clip83">
  <path d="M 83 15 L 87 15 L 87 24 L 83 24 Z M 83 15 "/>
</clipPath>
<clipPath id="clip84">
  <path d="M 82.136719 -0.921875 L 124.710938 75.808594 L 41.421875 122.019531 L -1.152344 45.289062 Z M 82.136719 -0.921875 "/>
</clipPath>
<clipPath id="clip85">
  <path d="M 82.136719 -0.921875 L 124.710938 75.808594 L 41.421875 122.019531 L -1.152344 45.289062 Z M 82.136719 -0.921875 "/>
</clipPath>
<clipPath id="clip86">
  <path d="M 80 22 L 86 22 L 86 30 L 80 30 Z M 80 22 "/>
</clipPath>
<clipPath id="clip87">
  <path d="M 82.136719 -0.921875 L 124.710938 75.808594 L 41.421875 122.019531 L -1.152344 45.289062 Z M 82.136719 -0.921875 "/>
</clipPath>
<clipPath id="clip88">
  <path d="M 82.136719 -0.921875 L 124.710938 75.808594 L 41.421875 122.019531 L -1.152344 45.289062 Z M 82.136719 -0.921875 "/>
</clipPath>
<clipPath id="clip89">
  <path d="M 82 27 L 86 27 L 86 30 L 82 30 Z M 82 27 "/>
</clipPath>
<clipPath id="clip90">
  <path d="M 82.136719 -0.921875 L 124.710938 75.808594 L 41.421875 122.019531 L -1.152344 45.289062 Z M 82.136719 -0.921875 "/>
</clipPath>
<clipPath id="clip91">
  <path d="M 82.136719 -0.921875 L 124.710938 75.808594 L 41.421875 122.019531 L -1.152344 45.289062 Z M 82.136719 -0.921875 "/>
</clipPath>
<clipPath id="clip92">
  <path d="M 73 12 L 80 12 L 80 16 L 73 16 Z M 73 12 "/>
</clipPath>
<clipPath id="clip93">
  <path d="M 82.136719 -0.921875 L 124.710938 75.808594 L 41.421875 122.019531 L -1.152344 45.289062 Z M 82.136719 -0.921875 "/>
</clipPath>
<clipPath id="clip94">
  <path d="M 82.136719 -0.921875 L 124.710938 75.808594 L 41.421875 122.019531 L -1.152344 45.289062 Z M 82.136719 -0.921875 "/>
</clipPath>
<clipPath id="clip95">
  <path d="M 75 30 L 81 30 L 81 37 L 75 37 Z M 75 30 "/>
</clipPath>
<clipPath id="clip96">
  <path d="M 82.136719 -0.921875 L 124.710938 75.808594 L 41.421875 122.019531 L -1.152344 45.289062 Z M 82.136719 -0.921875 "/>
</clipPath>
<clipPath id="clip97">
  <path d="M 82.136719 -0.921875 L 124.710938 75.808594 L 41.421875 122.019531 L -1.152344 45.289062 Z M 82.136719 -0.921875 "/>
</clipPath>
<clipPath id="clip98">
  <path d="M 21 46 L 93 46 L 93 114 L 21 114 Z M 21 46 "/>
</clipPath>
<clipPath id="clip99">
  <path d="M 82.136719 -0.921875 L 124.710938 75.808594 L 41.421875 122.019531 L -1.152344 45.289062 Z M 82.136719 -0.921875 "/>
</clipPath>
<clipPath id="clip100">
  <path d="M 82.136719 -0.921875 L 124.710938 75.808594 L 41.421875 122.019531 L -1.152344 45.289062 Z M 82.136719 -0.921875 "/>
</clipPath>
<clipPath id="clip1">
  <rect x="0" y="0" width="125" height="121"/>
</clipPath>
<g id="surface5" clip-path="url(#clip1)">
<g clip-path="url(#clip2)" clip-rule="nonzero">
<g clip-path="url(#clip3)" clip-rule="nonzero">
<g clip-path="url(#clip4)" clip-rule="nonzero">
<path style=" stroke:none;fill-rule:nonzero;fill:rgb(0%,0%,0%);fill-opacity:1;" d="M 96.167969 33.503906 C 98.910156 33.601562 100.773438 36.1875 101.847656 38.433594 C 102.871094 40.574219 103.679688 44.640625 100.789062 45.695312 C 100.671875 45.738281 99.980469 46.164062 100.195312 46.371094 C 102.296875 48.390625 102.515625 51.230469 101.523438 53.855469 C 100.511719 56.539062 97.933594 59.097656 94.878906 58.035156 C 94.488281 57.898438 93.542969 58.6875 93.875 58.800781 C 100.621094 61.105469 106.253906 50.433594 101.355469 45.691406 C 101.109375 45.933594 100.863281 46.179688 100.613281 46.421875 C 103.941406 45.214844 104.46875 42.007812 103.519531 38.902344 C 102.625 35.976562 99.871094 32.332031 96.417969 33.160156 C 96.339844 33.175781 95.929688 33.496094 96.167969 33.503906 "/>
</g>
</g>
</g>
<g clip-path="url(#clip5)" clip-rule="nonzero">
<g clip-path="url(#clip6)" clip-rule="nonzero">
<g clip-path="url(#clip7)" clip-rule="nonzero">
<path style=" stroke:none;fill-rule:nonzero;fill:rgb(0%,0%,0%);fill-opacity:1;" d="M 90.976562 52.773438 C 92.664062 54.691406 94.398438 57.695312 93.484375 60.296875 C 92.683594 62.566406 90.191406 64.316406 88.167969 62.324219 C 87.820312 61.988281 86.953125 62.574219 86.898438 62.972656 C 86.382812 66.753906 80.773438 68.328125 78.617188 65.023438 C 78.367188 64.632812 77.550781 65.300781 77.429688 65.542969 C 76.257812 67.914062 73.03125 67.429688 71.078125 66.410156 C 70.074219 65.882812 69.289062 65.054688 68.796875 64.039062 C 68.527344 63.480469 68.445312 62.867188 68.4375 62.253906 C 68.425781 61.640625 68.789062 61.015625 68.550781 60.4375 C 68.457031 60.203125 67.957031 60.597656 67.886719 60.679688 C 66.851562 61.929688 67.109375 63.851562 67.859375 65.199219 C 68.609375 66.550781 70.089844 67.398438 71.523438 67.824219 C 74.148438 68.605469 77.339844 67.777344 78.617188 65.203125 C 78.21875 65.375 77.824219 65.550781 77.425781 65.722656 C 80.210938 70.003906 87.550781 66.824219 88.1875 62.410156 C 87.765625 62.628906 87.34375 62.84375 86.921875 63.058594 C 89.105469 65.246094 92.019531 63.734375 93.683594 61.703125 C 96.144531 58.707031 94.738281 54.050781 91.230469 52.609375 C 91.167969 52.582031 90.914062 52.703125 90.976562 52.773438 "/>
</g>
</g>
</g>
<g clip-path="url(#clip8)" clip-rule="nonzero">
<g clip-path="url(#clip9)" clip-rule="nonzero">
<g clip-path="url(#clip10)" clip-rule="nonzero">
<path style=" stroke:none;fill-rule:nonzero;fill:rgb(0%,0%,0%);fill-opacity:1;" d="M 77.695312 56.566406 C 74.421875 58.816406 68.699219 62.71875 66.359375 57.226562 C 65.152344 54.386719 65.988281 50.800781 67.296875 48.160156 C 68.34375 46.042969 71.550781 42.402344 74.175781 43.898438 C 74.574219 44.125 75.601562 43.105469 75.605469 43.105469 C 73.085938 41.667969 69.808594 44.308594 68.070312 45.953125 C 65.257812 48.613281 63.953125 52.78125 64.539062 56.601562 C 65.066406 60.015625 67.679688 61.480469 70.847656 60.660156 C 73.6875 59.921875 76.1875 58.074219 78.566406 56.4375 C 79.410156 55.855469 77.972656 56.375 77.695312 56.566406 "/>
</g>
</g>
</g>
<g clip-path="url(#clip11)" clip-rule="nonzero">
<g clip-path="url(#clip12)" clip-rule="nonzero">
<g clip-path="url(#clip13)" clip-rule="nonzero">
<path style=" stroke:none;fill-rule:nonzero;fill:rgb(0%,0%,0%);fill-opacity:1;" d="M 97.25 36.839844 C 97.765625 35.394531 97.375 33.523438 96.265625 32.4375 C 95.273438 31.464844 93.851562 31.28125 92.527344 31.339844 C 90.101562 31.445312 86.632812 33.054688 86.359375 35.789062 C 86.796875 35.527344 87.238281 35.269531 87.679688 35.011719 C 83.929688 33.367188 79.265625 36.375 78.105469 40.082031 C 77.925781 40.660156 79.222656 40.105469 79.351562 39.722656 C 80.339844 36.835938 83.457031 34.644531 86.449219 35.945312 C 86.871094 36.128906 87.730469 35.628906 87.773438 35.171875 C 87.992188 32.9375 90.777344 32.230469 92.640625 32.277344 C 93.765625 32.304688 94.929688 32.667969 95.765625 33.445312 C 96.820312 34.425781 96.65625 35.640625 96.941406 36.953125 C 96.96875 37.082031 97.226562 36.910156 97.25 36.839844 "/>
</g>
</g>
</g>
<g clip-path="url(#clip14)" clip-rule="nonzero">
<g clip-path="url(#clip15)" clip-rule="nonzero">
<g clip-path="url(#clip16)" clip-rule="nonzero">
<path style=" stroke:none;fill-rule:nonzero;fill:rgb(0%,0%,0%);fill-opacity:1;" d="M 80.011719 39.574219 C 78.53125 39.253906 76.460938 40.957031 75.492188 41.910156 C 73.941406 43.441406 73.515625 45.582031 74.121094 47.640625 C 74.242188 48.0625 75.734375 47.34375 75.570312 46.789062 C 75.089844 45.113281 75.175781 43.550781 76.261719 42.132812 C 77.222656 40.875 78.742188 40.496094 79.996094 39.648438 C 80.015625 39.632812 80.058594 39.582031 80.011719 39.574219 "/>
</g>
</g>
</g>
<g clip-path="url(#clip17)" clip-rule="nonzero">
<g clip-path="url(#clip18)" clip-rule="nonzero">
<g clip-path="url(#clip19)" clip-rule="nonzero">
<path style=" stroke:none;fill-rule:nonzero;fill:rgb(0%,0%,0%);fill-opacity:1;" d="M 97.546875 49.433594 C 98.078125 47.375 95.300781 45.605469 93.667969 45.085938 C 91.84375 44.511719 89.640625 44.96875 88.261719 46.316406 C 84.886719 49.617188 85.40625 55 87.808594 58.71875 C 88.085938 59.148438 89.402344 58.277344 89.128906 57.945312 C 86.992188 55.304688 86.503906 51.171875 87.882812 48.097656 C 88.917969 45.792969 91.128906 45.210938 93.378906 46.039062 C 94.25 46.359375 95.011719 46.9375 95.644531 47.605469 C 96.234375 48.222656 96.453125 49.15625 97.132812 49.644531 C 97.242188 49.722656 97.519531 49.542969 97.546875 49.433594 "/>
</g>
</g>
</g>
<g clip-path="url(#clip20)" clip-rule="nonzero">
<g clip-path="url(#clip21)" clip-rule="nonzero">
<g clip-path="url(#clip22)" clip-rule="nonzero">
<path style=" stroke:none;fill-rule:nonzero;fill:rgb(0%,0%,0%);fill-opacity:1;" d="M 87.382812 55.886719 C 86.625 55.617188 85.472656 56.785156 85.015625 57.257812 C 84.171875 58.128906 83.609375 59.363281 83.6875 60.589844 C 83.71875 61.046875 84.851562 60.457031 84.867188 60.078125 C 84.914062 59.066406 85.132812 58.242188 85.761719 57.433594 C 86.207031 56.851562 86.988281 56.585938 87.382812 55.980469 C 87.398438 55.957031 87.425781 55.902344 87.382812 55.886719 "/>
</g>
</g>
</g>
<g clip-path="url(#clip23)" clip-rule="nonzero">
<g clip-path="url(#clip24)" clip-rule="nonzero">
<g clip-path="url(#clip25)" clip-rule="nonzero">
<path style=" stroke:none;fill-rule:nonzero;fill:rgb(0%,0%,0%);fill-opacity:1;" d="M 82.402344 57.246094 C 83.417969 56.246094 84.167969 54.71875 83.605469 53.304688 C 83.121094 52.082031 81.558594 51.664062 80.398438 51.511719 C 77.082031 51.070312 73.144531 52.664062 71.113281 55.308594 C 70.609375 55.96875 72.050781 55.496094 72.304688 55.164062 C 74.035156 52.945312 77.292969 52.167969 79.984375 52.488281 C 80.992188 52.605469 82.019531 53.015625 82.558594 53.921875 C 83.207031 55.007812 82.464844 56.179688 82.324219 57.265625 C 82.320312 57.296875 82.394531 57.253906 82.402344 57.246094 "/>
</g>
</g>
</g>
<g clip-path="url(#clip26)" clip-rule="nonzero">
<g clip-path="url(#clip27)" clip-rule="nonzero">
<g clip-path="url(#clip28)" clip-rule="nonzero">
<path style=" stroke:none;fill-rule:nonzero;fill:rgb(0%,0%,0%);fill-opacity:1;" d="M 71.652344 57.175781 C 72.507812 55.824219 71.984375 52.984375 70.53125 52.15625 C 70.265625 52.003906 69.273438 52.519531 69.492188 52.855469 C 69.972656 53.59375 70.546875 54.109375 70.863281 54.964844 C 71.128906 55.691406 70.96875 56.640625 71.503906 57.230469 C 71.542969 57.269531 71.628906 57.210938 71.652344 57.175781 "/>
</g>
</g>
</g>
<g clip-path="url(#clip29)" clip-rule="nonzero">
<g clip-path="url(#clip30)" clip-rule="nonzero">
<g clip-path="url(#clip31)" clip-rule="nonzero">
<path style=" stroke:none;fill-rule:nonzero;fill:rgb(0%,0%,0%);fill-opacity:1;" d="M 77.828125 51.785156 C 81.1875 50.957031 83.417969 46.578125 80.894531 43.816406 C 80.496094 44.082031 80.101562 44.347656 79.703125 44.613281 C 83.304688 46.289062 88.027344 43.554688 88.207031 39.5 C 88.226562 39.078125 87 39.601562 86.980469 40.03125 C 86.863281 43.054688 83.605469 45.46875 80.828125 43.757812 C 80.519531 43.566406 79.359375 44.242188 79.640625 44.554688 C 81.910156 47.070312 80.425781 50.054688 77.835938 51.53125 C 77.695312 51.613281 77.5625 51.847656 77.828125 51.785156 "/>
</g>
</g>
</g>
<g clip-path="url(#clip32)" clip-rule="nonzero">
<g clip-path="url(#clip33)" clip-rule="nonzero">
<g clip-path="url(#clip34)" clip-rule="nonzero">
<path style=" stroke:none;fill-rule:nonzero;fill:rgb(0%,0%,0%);fill-opacity:1;" d="M 98.914062 38.085938 C 99.058594 37.335938 97.945312 36.882812 97.390625 36.683594 C 96.660156 36.425781 95.851562 36.375 95.097656 36.542969 C 94.851562 36.597656 94.101562 37.25 94.707031 37.21875 C 95.457031 37.183594 96.125 37.195312 96.839844 37.453125 C 97.449219 37.675781 97.964844 38.230469 98.613281 38.289062 C 98.726562 38.296875 98.894531 38.203125 98.914062 38.085938 "/>
</g>
</g>
</g>
<g clip-path="url(#clip35)" clip-rule="nonzero">
<g clip-path="url(#clip36)" clip-rule="nonzero">
<g clip-path="url(#clip37)" clip-rule="nonzero">
<path style=" stroke:none;fill-rule:nonzero;fill:rgb(0%,0%,0%);fill-opacity:1;" d="M 100.847656 41.746094 C 99.898438 42.980469 98.722656 42.878906 97.378906 42.285156 C 96.214844 41.769531 95.039062 40.796875 94.871094 39.460938 C 94.8125 39.003906 93.609375 39.589844 93.667969 39.988281 C 93.941406 41.941406 95.945312 43.089844 97.730469 43.410156 C 98.601562 43.566406 101.488281 43.207031 100.949219 41.707031 C 100.9375 41.671875 100.855469 41.734375 100.847656 41.746094 "/>
</g>
</g>
</g>
<g clip-path="url(#clip38)" clip-rule="nonzero">
<g clip-path="url(#clip39)" clip-rule="nonzero">
<g clip-path="url(#clip40)" clip-rule="nonzero">
<path style=" stroke:none;fill-rule:nonzero;fill:rgb(0%,0%,0%);fill-opacity:1;" d="M 94.179688 39.507812 C 93.644531 40.449219 93.28125 41.308594 92.003906 41.15625 C 91.292969 41.070312 90.75 40.527344 90.378906 39.964844 C 89.742188 38.988281 89.609375 37.679688 89.648438 36.546875 C 89.664062 36.117188 88.464844 36.664062 88.433594 37.074219 C 88.300781 38.804688 88.691406 41.640625 90.820312 42.007812 C 91.757812 42.167969 92.730469 42 93.511719 41.441406 C 94.070312 41.039062 94.992188 40.136719 94.386719 39.414062 C 94.332031 39.351562 94.207031 39.460938 94.179688 39.507812 "/>
</g>
</g>
</g>
<g clip-path="url(#clip41)" clip-rule="nonzero">
<g clip-path="url(#clip42)" clip-rule="nonzero">
<g clip-path="url(#clip43)" clip-rule="nonzero">
<path style=" stroke:none;fill-rule:nonzero;fill:rgb(0%,0%,0%);fill-opacity:1;" d="M 90.757812 36.644531 C 90.457031 36.03125 89.613281 36.152344 89.0625 36.273438 C 88.234375 36.457031 87.515625 37.070312 87.09375 37.789062 C 86.96875 38.007812 87.019531 38.183594 87.308594 38.148438 C 87.65625 38.105469 88.023438 37.871094 88.191406 37.558594 C 88.691406 36.640625 89.5625 36.882812 90.441406 36.882812 C 90.527344 36.882812 90.820312 36.773438 90.757812 36.644531 "/>
</g>
</g>
</g>
<g clip-path="url(#clip44)" clip-rule="nonzero">
<g clip-path="url(#clip45)" clip-rule="nonzero">
<g clip-path="url(#clip46)" clip-rule="nonzero">
<path style=" stroke:none;fill-rule:nonzero;fill:rgb(0%,0%,0%);fill-opacity:1;" d="M 100.117188 50.074219 C 100.121094 49.796875 99.085938 49.648438 98.957031 49.597656 C 98.375 49.378906 97.886719 48.992188 97.535156 48.484375 C 97.320312 48.179688 96.46875 48.710938 96.484375 49.019531 C 96.5625 50.554688 96.527344 52.191406 95.679688 53.527344 C 95.3125 54.109375 96.460938 53.707031 96.648438 53.414062 C 97.601562 51.929688 97.6875 50.273438 97.550781 48.554688 C 97.203125 48.734375 96.851562 48.914062 96.503906 49.089844 C 97.09375 49.894531 97.984375 50.292969 98.941406 50.480469 C 99.195312 50.527344 100.109375 50.484375 100.117188 50.074219 "/>
</g>
</g>
</g>
<g clip-path="url(#clip47)" clip-rule="nonzero">
<g clip-path="url(#clip48)" clip-rule="nonzero">
<g clip-path="url(#clip49)" clip-rule="nonzero">
<path style=" stroke:none;fill-rule:nonzero;fill:rgb(0%,0%,0%);fill-opacity:1;" d="M 85.386719 39.558594 C 85.359375 39.5 85.332031 39.4375 85.304688 39.378906 C 85.277344 39.339844 85.238281 39.320312 85.1875 39.316406 C 83.164062 39.1875 79.851562 38.296875 78.261719 40.050781 C 78.203125 40.117188 78.109375 40.261719 78.257812 40.28125 C 78.65625 40.34375 78.992188 40.179688 79.367188 40.050781 C 80.152344 39.789062 80.976562 39.738281 81.800781 39.753906 C 82.957031 39.769531 84.15625 40.191406 85.246094 39.722656 C 85.292969 39.699219 85.417969 39.628906 85.386719 39.558594 "/>
</g>
</g>
</g>
<g clip-path="url(#clip50)" clip-rule="nonzero">
<g clip-path="url(#clip51)" clip-rule="nonzero">
<g clip-path="url(#clip52)" clip-rule="nonzero">
<path style=" stroke:none;fill-rule:nonzero;fill:rgb(0%,0%,0%);fill-opacity:1;" d="M 91.523438 24.324219 C 94.011719 21.851562 92.417969 17.785156 90.550781 15.433594 C 88.554688 12.917969 85.382812 11.492188 82.609375 13.664062 C 82.90625 13.628906 83.207031 13.59375 83.507812 13.558594 C 82.058594 6.839844 70.0625 5.925781 68.429688 12.945312 C 68.355469 13.273438 69.496094 12.851562 69.585938 12.441406 C 70.289062 9.339844 73.648438 8.644531 76.394531 9.019531 C 79.199219 9.402344 81.707031 11.226562 82.308594 14.082031 C 82.386719 14.46875 83.039062 14.101562 83.203125 13.976562 C 85.570312 12.125 88.484375 14.882812 89.792969 16.753906 C 91.222656 18.789062 92.515625 21.960938 91.125 24.328125 C 90.960938 24.601562 91.4375 24.410156 91.523438 24.324219 "/>
</g>
</g>
</g>
<g clip-path="url(#clip53)" clip-rule="nonzero">
<g clip-path="url(#clip54)" clip-rule="nonzero">
<g clip-path="url(#clip55)" clip-rule="nonzero">
<path style=" stroke:none;fill-rule:nonzero;fill:rgb(0%,0%,0%);fill-opacity:1;" d="M 72.269531 18.4375 C 72.617188 16.300781 71.808594 14.300781 70.1875 12.835938 C 69.003906 11.765625 67.683594 11.433594 66.109375 11.503906 C 63.480469 11.621094 60.433594 13.546875 61.121094 16.511719 C 61.523438 16.277344 61.921875 16.039062 62.324219 15.804688 C 58.226562 14.003906 51.710938 18.648438 53.855469 23.238281 C 54.199219 22.980469 54.542969 22.71875 54.890625 22.457031 C 51.925781 22.167969 49.632812 24.632812 48.894531 27.300781 C 48.160156 29.972656 49.566406 34.503906 53.082031 33.984375 C 53.203125 33.964844 53.761719 33.726562 53.621094 33.523438 C 53.304688 33.082031 52.738281 33.011719 52.269531 32.792969 C 51.699219 32.527344 51.230469 32.089844 50.839844 31.609375 C 50.121094 30.734375 49.882812 29.574219 49.875 28.472656 C 49.863281 26.164062 51.339844 23.0625 54.015625 23.324219 C 54.304688 23.351562 55.242188 22.953125 55.046875 22.539062 C 53.367188 18.929688 57.738281 15.097656 61.207031 16.65625 C 61.511719 16.792969 62.5 16.359375 62.410156 15.949219 C 61.789062 13.164062 64.332031 12.140625 66.703125 12.4375 C 69.523438 12.789062 71.277344 16.128906 72 18.574219 C 72.03125 18.667969 72.257812 18.5 72.269531 18.4375 "/>
</g>
</g>
</g>
<g clip-path="url(#clip56)" clip-rule="nonzero">
<g clip-path="url(#clip57)" clip-rule="nonzero">
<g clip-path="url(#clip58)" clip-rule="nonzero">
<path style=" stroke:none;fill-rule:nonzero;fill:rgb(0%,0%,0%);fill-opacity:1;" d="M 62.324219 27.15625 C 57.925781 29.070312 48.730469 33.300781 54.761719 38.972656 C 57.453125 41.507812 61.84375 42.53125 65.386719 41.679688 C 67.769531 41.105469 71.949219 39.707031 72.0625 36.726562 C 72.0625 36.730469 70.652344 37.0625 70.636719 37.519531 C 70.519531 40.46875 66.0625 41.199219 63.757812 41.125 C 60.613281 41.027344 57.164062 39.601562 55.191406 37.097656 C 51.476562 32.375 58.339844 29.316406 61.753906 27.828125 C 62.058594 27.695312 63.261719 26.75 62.324219 27.15625 "/>
</g>
</g>
</g>
<g clip-path="url(#clip59)" clip-rule="nonzero">
<g clip-path="url(#clip60)" clip-rule="nonzero">
<g clip-path="url(#clip61)" clip-rule="nonzero">
<path style=" stroke:none;fill-rule:nonzero;fill:rgb(0%,0%,0%);fill-opacity:1;" d="M 88.566406 21.875 C 89.410156 22.699219 90.859375 23.347656 90.929688 24.695312 C 90.988281 25.855469 90.921875 26.757812 90.390625 27.832031 C 89.53125 29.566406 87.253906 31.582031 85.214844 30.570312 C 84.789062 30.359375 83.960938 30.910156 83.894531 31.347656 C 83.414062 34.582031 79.847656 36 76.894531 35.3125 C 76.503906 35.222656 75.378906 36.070312 75.976562 36.226562 C 79.757812 37.210938 84.71875 34.777344 85.308594 30.730469 C 84.871094 30.992188 84.429688 31.25 83.988281 31.507812 C 86.511719 32.75 89.566406 30.519531 91.003906 28.566406 C 92.816406 26.101562 92.183594 22.375 88.832031 21.671875 C 88.773438 21.660156 88.492188 21.800781 88.566406 21.875 "/>
</g>
</g>
</g>
<g clip-path="url(#clip62)" clip-rule="nonzero">
<g clip-path="url(#clip63)" clip-rule="nonzero">
<g clip-path="url(#clip64)" clip-rule="nonzero">
<path style=" stroke:none;fill-rule:nonzero;fill:rgb(0%,0%,0%);fill-opacity:1;" d="M 77.320312 34.832031 C 75.890625 35.453125 74.824219 36.425781 73.214844 36.667969 C 71.480469 36.929688 70.015625 36.007812 68.902344 34.769531 C 68.523438 34.34375 67.148438 35.28125 67.453125 35.621094 C 68.886719 37.234375 70.785156 37.871094 72.894531 37.492188 C 74.261719 37.25 76.832031 36.273438 77.394531 34.855469 C 77.414062 34.804688 77.339844 34.824219 77.320312 34.832031 "/>
</g>
</g>
</g>
<g clip-path="url(#clip65)" clip-rule="nonzero">
<g clip-path="url(#clip66)" clip-rule="nonzero">
<g clip-path="url(#clip67)" clip-rule="nonzero">
<path style=" stroke:none;fill-rule:nonzero;fill:rgb(0%,0%,0%);fill-opacity:1;" d="M 77.914062 15.011719 C 77.96875 15.742188 78.503906 16.339844 78.761719 17.027344 C 79.09375 17.90625 79.132812 18.847656 79.046875 19.769531 C 78.957031 20.75 78.550781 21.667969 77.972656 22.453125 C 77.113281 23.613281 75.632812 23.765625 74.308594 23.644531 C 70.988281 23.339844 67.6875 20.46875 66.617188 17.367188 C 66.480469 16.980469 65.070312 17.664062 65.296875 18.140625 C 67.058594 21.894531 71.296875 25.457031 75.703125 24.382812 C 77.640625 23.910156 79.085938 22.597656 79.804688 20.742188 C 80.4375 19.109375 80.425781 15.390625 78.339844 14.761719 C 78.214844 14.726562 77.902344 14.851562 77.914062 15.011719 "/>
</g>
</g>
</g>
<g clip-path="url(#clip68)" clip-rule="nonzero">
<g clip-path="url(#clip69)" clip-rule="nonzero">
<g clip-path="url(#clip70)" clip-rule="nonzero">
<path style=" stroke:none;fill-rule:nonzero;fill:rgb(0%,0%,0%);fill-opacity:1;" d="M 67.402344 19.917969 C 66.773438 19.882812 66.125 20.351562 65.511719 20.476562 C 64.433594 20.695312 63.480469 20.378906 62.550781 19.859375 C 62.21875 19.671875 61.152344 20.371094 61.527344 20.640625 C 62.511719 21.347656 63.753906 21.480469 64.921875 21.289062 C 65.617188 21.175781 67.203125 20.785156 67.445312 19.988281 C 67.457031 19.953125 67.449219 19.917969 67.402344 19.917969 "/>
</g>
</g>
</g>
<g clip-path="url(#clip71)" clip-rule="nonzero">
<g clip-path="url(#clip72)" clip-rule="nonzero">
<g clip-path="url(#clip73)" clip-rule="nonzero">
<path style=" stroke:none;fill-rule:nonzero;fill:rgb(0%,0%,0%);fill-opacity:1;" d="M 63.609375 23.535156 C 64.628906 24.019531 65.730469 23.992188 66.480469 24.964844 C 67.171875 25.863281 66.828125 27.144531 66.433594 28.074219 C 65.375 30.566406 62.796875 32.839844 60.0625 33.125 C 59.640625 33.167969 58.523438 34.179688 59.359375 34.097656 C 62.691406 33.773438 65.792969 31.304688 67.351562 28.410156 C 67.953125 27.292969 68.316406 25.871094 67.730469 24.675781 C 67.035156 23.257812 64.980469 23.148438 63.660156 23.472656 C 63.652344 23.476562 63.578125 23.519531 63.609375 23.535156 "/>
</g>
</g>
</g>
<g clip-path="url(#clip74)" clip-rule="nonzero">
<g clip-path="url(#clip75)" clip-rule="nonzero">
<g clip-path="url(#clip76)" clip-rule="nonzero">
<path style=" stroke:none;fill-rule:nonzero;fill:rgb(0%,0%,0%);fill-opacity:1;" d="M 57.914062 32.734375 C 58.117188 33.425781 58.824219 33.765625 59.304688 34.265625 C 60.027344 35.015625 60.15625 35.882812 60.574219 36.78125 C 60.742188 37.148438 61.679688 36.511719 61.691406 36.210938 C 61.746094 34.554688 59.636719 32.601562 58.03125 32.632812 C 57.992188 32.632812 57.898438 32.683594 57.914062 32.734375 "/>
</g>
</g>
</g>
<g clip-path="url(#clip77)" clip-rule="nonzero">
<g clip-path="url(#clip78)" clip-rule="nonzero">
<g clip-path="url(#clip79)" clip-rule="nonzero">
<path style=" stroke:none;fill-rule:nonzero;fill:rgb(0%,0%,0%);fill-opacity:1;" d="M 66.101562 30.371094 C 68.730469 28.953125 72.0625 29.324219 72.988281 32.566406 C 73.105469 32.96875 74.261719 32.273438 74.265625 31.917969 C 74.289062 28.640625 78.109375 27.242188 80.714844 28.726562 C 81.085938 28.9375 82.160156 28.128906 81.777344 27.917969 C 78.222656 25.914062 73.445312 28.554688 72.96875 32.484375 C 73.394531 32.265625 73.820312 32.046875 74.242188 31.832031 C 73.226562 28.191406 68.363281 27.867188 65.878906 30.257812 C 65.675781 30.453125 65.972656 30.441406 66.101562 30.371094 "/>
</g>
</g>
</g>
<g clip-path="url(#clip80)" clip-rule="nonzero">
<g clip-path="url(#clip81)" clip-rule="nonzero">
<g clip-path="url(#clip82)" clip-rule="nonzero">
<path style=" stroke:none;fill-rule:nonzero;fill:rgb(0%,0%,0%);fill-opacity:1;" d="M 88.332031 19.761719 C 88.054688 20.34375 88.214844 21.09375 88.109375 21.726562 C 87.984375 22.460938 87.589844 23.058594 87.171875 23.65625 C 86.820312 24.15625 87.789062 23.8125 87.953125 23.644531 C 88.492188 23.09375 88.867188 22.367188 89.035156 21.617188 C 89.15625 21.054688 89.367188 19.855469 88.65625 19.597656 C 88.542969 19.554688 88.382812 19.664062 88.332031 19.761719 "/>
</g>
</g>
</g>
<g clip-path="url(#clip83)" clip-rule="nonzero">
<g clip-path="url(#clip84)" clip-rule="nonzero">
<g clip-path="url(#clip85)" clip-rule="nonzero">
<path style=" stroke:none;fill-rule:nonzero;fill:rgb(0%,0%,0%);fill-opacity:1;" d="M 86.664062 15.957031 C 85.65625 14.667969 83.882812 17.027344 83.523438 17.820312 C 82.785156 19.464844 82.820312 21.847656 84.289062 23.078125 C 84.589844 23.332031 85.699219 22.582031 85.335938 22.28125 C 84.328125 21.464844 84.160156 20.089844 84.253906 18.875 C 84.304688 18.191406 84.492188 17.507812 84.839844 16.914062 C 85.234375 16.242188 85.851562 16.113281 86.578125 16.03125 C 86.597656 16.027344 86.6875 15.988281 86.664062 15.957031 "/>
</g>
</g>
</g>
<g clip-path="url(#clip86)" clip-rule="nonzero">
<g clip-path="url(#clip87)" clip-rule="nonzero">
<g clip-path="url(#clip88)" clip-rule="nonzero">
<path style=" stroke:none;fill-rule:nonzero;fill:rgb(0%,0%,0%);fill-opacity:1;" d="M 85.132812 22.738281 C 84.875 21.964844 83.808594 22.054688 83.195312 22.308594 C 82.199219 22.71875 81.46875 23.421875 81.058594 24.425781 C 80.246094 26.429688 82.457031 28.261719 83.992188 29.0625 C 84.355469 29.25 85.429688 28.476562 85.046875 28.257812 C 84.015625 27.664062 83.113281 26.871094 82.535156 25.824219 C 82.257812 25.320312 82.199219 24.773438 82.273438 24.214844 C 82.464844 22.753906 83.855469 22.847656 84.953125 22.875 C 85.007812 22.878906 85.160156 22.816406 85.132812 22.738281 "/>
</g>
</g>
</g>
<g clip-path="url(#clip89)" clip-rule="nonzero">
<g clip-path="url(#clip90)" clip-rule="nonzero">
<g clip-path="url(#clip91)" clip-rule="nonzero">
<path style=" stroke:none;fill-rule:nonzero;fill:rgb(0%,0%,0%);fill-opacity:1;" d="M 85.21875 27.40625 C 84.742188 28.199219 84.496094 29.027344 83.414062 28.960938 C 83.101562 28.941406 82.777344 29.125 82.5625 29.339844 C 82.453125 29.445312 82.242188 29.800781 82.558594 29.808594 C 83.414062 29.832031 84.21875 29.585938 84.867188 29.015625 C 85.304688 28.628906 85.945312 27.886719 85.5625 27.28125 C 85.496094 27.175781 85.257812 27.34375 85.21875 27.40625 "/>
</g>
</g>
</g>
<g clip-path="url(#clip92)" clip-rule="nonzero">
<g clip-path="url(#clip93)" clip-rule="nonzero">
<g clip-path="url(#clip94)" clip-rule="nonzero">
<path style=" stroke:none;fill-rule:nonzero;fill:rgb(0%,0%,0%);fill-opacity:1;" d="M 78.492188 12.546875 C 78.878906 12.28125 78.960938 12.210938 78.730469 12.339844 C 78.636719 12.390625 78.554688 12.460938 78.492188 12.546875 C 78.25 12.855469 78.113281 13.164062 78 13.539062 C 77.761719 14.300781 77.765625 15.113281 78.0625 15.855469 C 78.386719 15.636719 78.714844 15.417969 79.039062 15.199219 C 77.699219 14.207031 76.261719 13.375 74.550781 13.398438 C 74.253906 13.402344 73.96875 13.542969 73.757812 13.75 C 73.660156 13.847656 73.453125 14.195312 73.753906 14.191406 C 75.386719 14.183594 76.808594 14.996094 78.117188 15.902344 C 78.378906 16.085938 79.238281 15.582031 79.09375 15.25 C 78.664062 14.253906 78.925781 13.378906 79.207031 12.394531 C 79.320312 12.003906 78.582031 12.425781 78.492188 12.546875 "/>
</g>
</g>
</g>
<g clip-path="url(#clip95)" clip-rule="nonzero">
<g clip-path="url(#clip96)" clip-rule="nonzero">
<g clip-path="url(#clip97)" clip-rule="nonzero">
<path style=" stroke:none;fill-rule:nonzero;fill:rgb(0%,0%,0%);fill-opacity:1;" d="M 80.039062 30.34375 C 79.15625 30.964844 78.871094 32.058594 78.363281 32.980469 C 77.960938 33.703125 77.496094 34.351562 76.90625 34.929688 C 76.539062 35.289062 76.101562 35.519531 75.871094 35.980469 C 75.820312 36.082031 75.925781 36.117188 76.003906 36.105469 C 78.339844 35.773438 79.402344 32.335938 80.347656 30.582031 C 80.367188 30.535156 80.371094 30.492188 80.351562 30.449219 C 80.316406 30.398438 80.28125 30.347656 80.246094 30.296875 C 80.203125 30.234375 80.078125 30.3125 80.039062 30.34375 "/>
</g>
</g>
</g>
<g clip-path="url(#clip98)" clip-rule="nonzero">
<g clip-path="url(#clip99)" clip-rule="nonzero">
<g clip-path="url(#clip100)" clip-rule="nonzero">
<path style=" stroke:none;fill-rule:nonzero;fill:rgb(0%,0%,0%);fill-opacity:1;" d="M 62.003906 46.589844 C 59.59375 50.039062 56.804688 52.492188 52.703125 53.609375 C 49.179688 54.566406 45.484375 54.566406 41.882812 55 C 36.773438 55.617188 31.636719 57.351562 27.550781 60.535156 C 23.597656 63.621094 21.324219 68.117188 21.527344 73.167969 C 21.769531 79.226562 24.929688 85.234375 30.195312 88.335938 C 35.136719 91.246094 41.3125 91.355469 46.683594 89.761719 C 51.316406 88.382812 56.292969 85.195312 57.445312 80.179688 C 58.292969 76.476562 57.4375 71.191406 53.722656 69.292969 C 50.539062 67.667969 46.453125 68.957031 43.449219 70.335938 C 39.710938 72.050781 36.304688 74.632812 33.636719 77.753906 C 30.34375 81.605469 29.066406 87.066406 29.046875 92.039062 C 29.023438 98.0625 31.394531 103.921875 35.894531 107.960938 C 40.613281 112.199219 47.703125 113.953125 53.855469 112.632812 C 60.789062 111.144531 66.394531 106.367188 70.644531 100.886719 C 73.335938 97.421875 75.660156 93.675781 78.601562 90.414062 C 81.992188 86.648438 86.113281 84.382812 91.269531 84.5625 C 91.792969 84.578125 92.324219 84.292969 92.6875 83.933594 C 92.875 83.75 93.222656 83.167969 92.695312 83.148438 C 88.984375 83.011719 85.515625 83.894531 82.347656 85.835938 C 79.277344 87.714844 76.839844 90.460938 74.644531 93.273438 C 70.246094 98.910156 66.671875 105.191406 60.382812 108.980469 C 54.402344 112.582031 47.183594 112.269531 41.105469 109.023438 C 35.394531 105.972656 31.988281 100.0625 31.230469 93.75 C 30.597656 88.496094 31.667969 82.300781 34.96875 78.058594 C 37.394531 74.945312 40.882812 72.476562 44.519531 70.996094 C 47.597656 69.746094 51.589844 69.324219 53.886719 72.230469 C 55.265625 73.972656 55.613281 76.355469 55.683594 78.503906 C 55.777344 81.257812 54.585938 83.742188 52.59375 85.585938 C 48.582031 89.304688 41.910156 89.972656 36.789062 88.851562 C 30.003906 87.367188 25.574219 82.046875 24.023438 75.453125 C 22.78125 70.171875 24.117188 64.777344 28.347656 61.25 C 32.488281 57.796875 38.03125 56.644531 43.269531 56.222656 C 47.304688 55.894531 51.375 55.492188 55.132812 53.894531 C 58.664062 52.390625 61.453125 49.683594 63.265625 46.328125 C 63.558594 45.78125 62.1875 46.328125 62.003906 46.589844 "/>
</g>
</g>
</g>
</g>
<mask id="mask1">
  <g filter="url(#alpha)">
<rect x="0" y="0" width="375" height="374.999991" style="fill:rgb(0%,0%,0%);fill-opacity:0.5294;stroke:none;"/>
  </g>
</mask>
<clipPath id="clip102">
  <path d="M 55 64 L 91.640625 64 L 91.640625 96 L 55 96 Z M 55 64 "/>
</clipPath>
<clipPath id="clip103">
  <path d="M 41 0.394531 L 65 0.394531 L 65 29 L 41 29 Z M 41 0.394531 "/>
</clipPath>
<clipPath id="clip104">
  <path d="M 0.890625 0.394531 L 44 0.394531 L 44 87 L 0.890625 87 Z M 0.890625 0.394531 "/>
</clipPath>
<clipPath id="clip101">
  <rect x="0" y="0" width="93" height="96"/>
</clipPath>
<g id="surface8" clip-path="url(#clip101)">
<g clip-path="url(#clip102)" clip-rule="nonzero">
<path style=" stroke:none;fill-rule:nonzero;fill:rgb(0%,0%,0%);fill-opacity:1;" d="M 74.683594 93.921875 C 74.9375 94.019531 75.195312 94.117188 75.449219 94.203125 C 78.828125 95.351562 82.539062 94.316406 84.90625 91.570312 C 88.675781 87.195312 89.855469 82.21875 90.179688 78.816406 C 90.414062 76.363281 90.140625 74.058594 89.367188 71.972656 C 86.539062 64.308594 79.421875 65.132812 75.429688 66.304688 C 74.046875 66.710938 72.589844 66.710938 71.203125 66.304688 C 67.214844 65.132812 60.09375 64.308594 57.265625 71.972656 C 56.492188 74.066406 56.222656 76.378906 56.457031 78.84375 C 56.789062 82.253906 57.976562 87.234375 61.761719 91.605469 C 64.125 94.339844 67.839844 95.347656 71.226562 94.1875 C 71.457031 94.109375 71.6875 94.023438 71.917969 93.9375 C 72.824219 93.570312 73.804688 93.566406 74.683594 93.921875 Z M 78.238281 95.882812 C 77.175781 95.882812 76.101562 95.710938 75.058594 95.355469 C 74.78125 95.261719 74.507812 95.15625 74.230469 95.050781 C 73.644531 94.8125 72.984375 94.820312 72.367188 95.0625 C 72.121094 95.160156 71.871094 95.253906 71.621094 95.339844 C 67.761719 96.660156 63.53125 95.507812 60.839844 92.402344 C 56.84375 87.789062 55.59375 82.546875 55.246094 78.960938 C 54.992188 76.308594 55.285156 73.816406 56.125 71.550781 C 59.414062 62.644531 68.003906 64.097656 71.546875 65.136719 C 72.703125 65.480469 73.925781 65.480469 75.089844 65.136719 C 78.625 64.097656 87.21875 62.640625 90.511719 71.550781 C 91.347656 73.8125 91.640625 76.296875 91.390625 78.925781 C 91.046875 82.507812 89.804688 87.746094 85.832031 92.359375 C 83.867188 94.640625 81.089844 95.882812 78.238281 95.882812 "/>
</g>
<path style=" stroke:none;fill-rule:nonzero;fill:rgb(21.958923%,71.369934%,100%);fill-opacity:1;" d="M 78.226562 91.625 C 77.613281 91.625 77.011719 91.523438 76.429688 91.328125 C 76.226562 91.253906 76.023438 91.183594 75.824219 91.101562 C 75.027344 90.78125 74.191406 90.621094 73.332031 90.621094 C 72.457031 90.621094 71.601562 90.785156 70.785156 91.109375 C 70.601562 91.183594 70.421875 91.253906 70.238281 91.316406 C 69.648438 91.515625 69.03125 91.621094 68.410156 91.621094 C 66.75 91.621094 65.167969 90.890625 64.066406 89.621094 C 60.800781 85.851562 59.773438 81.519531 59.488281 78.554688 C 59.292969 76.546875 59.503906 74.683594 60.121094 73.023438 C 61.25 69.96875 63.179688 68.601562 66.378906 68.601562 C 67.917969 68.601562 69.386719 68.9375 70.34375 69.222656 C 71.3125 69.503906 72.3125 69.648438 73.316406 69.648438 C 74.324219 69.648438 75.324219 69.503906 76.289062 69.222656 C 77.25 68.9375 78.71875 68.601562 80.253906 68.601562 C 83.453125 68.601562 85.382812 69.96875 86.515625 73.023438 C 87.125 74.683594 87.339844 76.53125 87.148438 78.523438 C 86.867188 81.492188 85.851562 85.816406 82.601562 89.585938 C 81.484375 90.878906 79.890625 91.625 78.226562 91.625 "/>
<path style=" stroke:none;fill-rule:nonzero;fill:rgb(0%,0%,0%);fill-opacity:1;" d="M 70.839844 63.757812 C 70.558594 63.757812 70.304688 63.558594 70.246094 63.273438 C 69.742188 60.878906 69.609375 57.425781 71.832031 54.601562 C 72.003906 54.378906 72.296875 54.304688 72.554688 54.417969 L 74.570312 55.296875 C 74.734375 55.367188 74.855469 55.507812 74.910156 55.679688 C 74.960938 55.847656 74.929688 56.035156 74.835938 56.183594 C 74.816406 56.214844 73.183594 58.792969 73.835938 61.285156 C 75.1875 58.277344 79.214844 51.667969 87.683594 53.921875 C 87.945312 53.992188 88.132812 54.230469 88.132812 54.507812 C 88.132812 54.679688 88.109375 58.773438 84.445312 61.488281 C 83.6875 62.050781 82.800781 62.519531 81.8125 62.878906 C 81.496094 62.992188 81.148438 62.828125 81.03125 62.515625 C 80.917969 62.199219 81.082031 61.851562 81.398438 61.738281 C 82.273438 61.417969 83.058594 61.007812 83.722656 60.511719 C 86.203125 58.675781 86.757812 56.035156 86.878906 54.976562 C 77.621094 52.871094 74.578125 62.609375 74.449219 63.03125 C 74.378906 63.257812 74.183594 63.425781 73.949219 63.460938 C 73.714844 63.492188 73.484375 63.386719 73.351562 63.1875 C 71.617188 60.488281 72.8125 57.429688 73.464844 56.144531 L 72.511719 55.726562 C 70.871094 58.117188 71.007812 60.988281 71.433594 63.023438 C 71.507812 63.355469 71.292969 63.675781 70.964844 63.742188 C 70.925781 63.753906 70.878906 63.757812 70.839844 63.757812 "/>
<path style=" stroke:none;fill-rule:nonzero;fill:rgb(0%,0%,0%);fill-opacity:1;" d="M 37.550781 95.886719 C 33.105469 95.886719 28.511719 94.75 24.214844 91.675781 C 23.238281 90.980469 22.675781 89.847656 22.710938 88.648438 C 22.738281 87.453125 23.355469 86.363281 24.355469 85.726562 L 24.464844 85.65625 C 25.234375 85.175781 26.132812 84.792969 27.117188 84.519531 C 31.84375 83.210938 55.710938 75.316406 61.421875 48.339844 C 61.808594 46.535156 62.289062 44.597656 62.894531 42.421875 C 63.375 40.695312 63.539062 37.902344 61.589844 34.390625 C 61.308594 33.878906 61.257812 33.277344 61.457031 32.734375 C 61.652344 32.203125 62.066406 31.777344 62.597656 31.570312 C 63.5 31.222656 64.386719 31.039062 65.226562 31.019531 C 65.242188 31.019531 65.253906 31.019531 65.265625 31.019531 C 66.335938 31.019531 67.199219 31.835938 67.246094 32.890625 C 67.304688 34.304688 67.765625 37.152344 70.183594 40.359375 C 73.1875 44.351562 75.097656 48.84375 75.714844 53.351562 C 75.761719 53.683594 75.527344 53.988281 75.195312 54.035156 C 74.859375 54.078125 74.554688 53.847656 74.511719 53.515625 C 73.925781 49.210938 72.09375 44.914062 69.210938 41.089844 C 66.597656 37.617188 66.09375 34.496094 66.027344 32.941406 C 66.011719 32.539062 65.667969 32.226562 65.25 32.234375 C 64.550781 32.25 63.808594 32.40625 63.039062 32.703125 C 62.832031 32.785156 62.671875 32.941406 62.597656 33.148438 C 62.523438 33.359375 62.542969 33.597656 62.65625 33.800781 C 64.804688 37.675781 64.609375 40.804688 64.070312 42.746094 C 63.46875 44.898438 62.992188 46.8125 62.613281 48.59375 C 56.753906 76.253906 32.289062 84.351562 27.445312 85.691406 C 26.566406 85.933594 25.78125 86.269531 25.105469 86.691406 L 25.007812 86.75 C 24.34375 87.175781 23.949219 87.878906 23.925781 88.679688 C 23.902344 89.488281 24.269531 90.21875 24.921875 90.6875 C 35.964844 98.585938 49.207031 92.960938 56.117188 88.910156 C 56.410156 88.738281 56.78125 88.835938 56.949219 89.128906 C 57.121094 89.414062 57.023438 89.789062 56.734375 89.957031 C 52.226562 92.605469 45.101562 95.886719 37.550781 95.886719 "/>
<path style=" stroke:none;fill-rule:nonzero;fill:rgb(0%,0%,0%);fill-opacity:1;" d="M 32.742188 83.78125 C 32.71875 83.78125 32.695312 83.78125 32.667969 83.78125 C 26.234375 83.015625 21.128906 80.289062 17.484375 75.679688 C 16.785156 74.792969 16.570312 73.617188 16.914062 72.535156 C 17.253906 71.457031 18.101562 70.625 19.175781 70.308594 L 19.292969 70.277344 C 20.214844 70.015625 21.160156 69.960938 21.960938 69.941406 C 39.863281 69.5 52.890625 63.300781 60.675781 51.507812 C 60.863281 51.226562 61.242188 51.148438 61.519531 51.335938 C 61.800781 51.519531 61.878906 51.894531 61.691406 52.179688 C 56.625 59.847656 49.367188 65.28125 40.113281 68.328125 C 32.277344 70.90625 25.070312 71.082031 21.992188 71.15625 C 21.265625 71.175781 20.414062 71.222656 19.625 71.445312 L 19.523438 71.472656 C 18.824219 71.679688 18.292969 72.203125 18.074219 72.902344 C 17.847656 73.613281 17.980469 74.351562 18.441406 74.929688 C 21.878906 79.277344 26.714844 81.847656 32.8125 82.570312 C 33.144531 82.613281 33.386719 82.914062 33.34375 83.246094 C 33.308594 83.554688 33.046875 83.78125 32.742188 83.78125 "/>
<g clip-path="url(#clip103)" clip-rule="nonzero">
<path style=" stroke:none;fill-rule:nonzero;fill:rgb(0%,0%,0%);fill-opacity:1;" d="M 63.640625 28.742188 C 63.304688 28.742188 63.03125 28.46875 63.03125 28.136719 L 63.03125 5.976562 C 63.03125 3.613281 61.105469 1.691406 58.742188 1.691406 L 42.476562 1.691406 C 42.140625 1.691406 41.863281 1.421875 41.863281 1.085938 C 41.863281 0.75 42.140625 0.476562 42.476562 0.476562 L 58.742188 0.476562 C 61.777344 0.476562 64.25 2.945312 64.25 5.976562 L 64.25 28.136719 C 64.25 28.46875 63.976562 28.742188 63.640625 28.742188 "/>
</g>
<g clip-path="url(#clip104)" clip-rule="nonzero">
<path style=" stroke:none;fill-rule:nonzero;fill:rgb(0%,0%,0%);fill-opacity:1;" d="M 20.304688 86.5 L 6.367188 86.5 C 3.332031 86.5 0.859375 84.03125 0.859375 81.003906 L 0.859375 5.976562 C 0.859375 2.945312 3.332031 0.476562 6.367188 0.476562 L 42.476562 0.476562 C 42.8125 0.476562 43.082031 0.75 43.082031 1.085938 C 43.082031 1.421875 42.8125 1.691406 42.476562 1.691406 L 6.367188 1.691406 C 4.003906 1.691406 2.078125 3.613281 2.078125 5.976562 L 2.078125 81.003906 C 2.078125 83.363281 4.003906 85.285156 6.367188 85.285156 L 20.304688 85.285156 C 20.644531 85.285156 20.917969 85.558594 20.917969 85.894531 C 20.917969 86.230469 20.644531 86.5 20.304688 86.5 "/>
</g>
<path style=" stroke:none;fill-rule:nonzero;fill:rgb(0%,0%,0%);fill-opacity:1;" d="M 16 79.253906 L 8.726562 79.253906 C 8.390625 79.253906 8.117188 78.984375 8.117188 78.644531 L 8.117188 8.332031 C 8.117188 8 8.390625 7.726562 8.726562 7.726562 L 56.382812 7.726562 C 56.71875 7.726562 56.992188 8 56.992188 8.332031 L 56.992188 50.40625 C 56.992188 50.742188 56.71875 51.015625 56.382812 51.015625 C 56.046875 51.015625 55.773438 50.742188 55.773438 50.40625 L 55.773438 8.941406 L 9.335938 8.941406 L 9.335938 78.035156 L 16 78.035156 C 16.335938 78.035156 16.609375 78.308594 16.609375 78.644531 C 16.609375 78.984375 16.335938 79.253906 16 79.253906 "/>
<path style=" stroke:none;fill-rule:nonzero;fill:rgb(0%,0%,0%);fill-opacity:1;" d="M 21.234375 44.964844 C 21.074219 44.964844 20.917969 44.902344 20.804688 44.792969 L 18.019531 42.011719 C 17.785156 41.773438 17.785156 41.386719 18.019531 41.148438 C 18.257812 40.910156 18.640625 40.910156 18.878906 41.148438 L 21.222656 43.488281 L 26.550781 37.851562 C 26.78125 37.609375 27.164062 37.597656 27.40625 37.824219 C 27.652344 38.054688 27.664062 38.441406 27.433594 38.6875 L 21.675781 44.777344 C 21.5625 44.894531 21.40625 44.964844 21.242188 44.964844 C 21.242188 44.964844 21.238281 44.964844 21.234375 44.964844 "/>
<path style=" stroke:none;fill-rule:nonzero;fill:rgb(0%,0%,0%);fill-opacity:1;" d="M 21.234375 28.03125 C 21.074219 28.03125 20.917969 27.964844 20.804688 27.851562 L 18.019531 25.070312 C 17.785156 24.832031 17.785156 24.449219 18.019531 24.210938 C 18.257812 23.976562 18.640625 23.976562 18.878906 24.210938 L 21.222656 26.550781 L 26.550781 20.914062 C 26.78125 20.671875 27.164062 20.660156 27.40625 20.890625 C 27.652344 21.121094 27.664062 21.503906 27.433594 21.746094 L 21.675781 27.839844 C 21.5625 27.960938 21.40625 28.027344 21.242188 28.03125 C 21.242188 28.03125 21.238281 28.03125 21.234375 28.03125 "/>
<path style=" stroke:none;fill-rule:nonzero;fill:rgb(0%,0%,0%);fill-opacity:1;" d="M 50.367188 28.03125 L 30.496094 28.03125 C 30.160156 28.03125 29.886719 27.757812 29.886719 27.421875 C 29.886719 27.085938 30.160156 26.8125 30.496094 26.8125 L 50.367188 26.8125 C 50.703125 26.8125 50.976562 27.085938 50.976562 27.421875 C 50.976562 27.757812 50.703125 28.03125 50.367188 28.03125 "/>
<path style=" stroke:none;fill-rule:nonzero;fill:rgb(0%,0%,0%);fill-opacity:1;" d="M 50.367188 45.367188 L 30.496094 45.367188 C 30.160156 45.367188 29.886719 45.097656 29.886719 44.761719 C 29.886719 44.425781 30.160156 44.152344 30.496094 44.152344 L 50.367188 44.152344 C 50.703125 44.152344 50.976562 44.425781 50.976562 44.761719 C 50.976562 45.097656 50.703125 45.367188 50.367188 45.367188 "/>
</g>
<mask id="mask2">
  <g filter="url(#alpha)">
<rect x="0" y="0" width="375" height="374.999991" style="fill:rgb(0%,0%,0%);fill-opacity:0.6;stroke:none;"/>
  </g>
</mask>
<clipPath id="clip106">
  <path d="M 1 15 L 23 15 L 23 29 L 1 29 Z M 1 15 "/>
</clipPath>
<clipPath id="clip107">
  <path d="M 18.40625 1 L 40.554688 18.933594 L 22.621094 41.085938 L 0.472656 23.152344 Z M 18.40625 1 "/>
</clipPath>
<clipPath id="clip108">
  <path d="M 18.40625 1 L 40.554688 18.933594 L 22.621094 41.085938 L 0.472656 23.152344 Z M 18.40625 1 "/>
</clipPath>
<clipPath id="clip109">
  <path d="M 18.40625 1 L 40.730469 19.074219 L 22.65625 41.402344 L 0.332031 23.324219 Z M 18.40625 1 "/>
</clipPath>
<clipPath id="clip110">
  <path d="M 23 14 L 40 14 L 40 27 L 23 27 Z M 23 14 "/>
</clipPath>
<clipPath id="clip111">
  <path d="M 18.40625 1 L 40.554688 18.933594 L 22.621094 41.085938 L 0.472656 23.152344 Z M 18.40625 1 "/>
</clipPath>
<clipPath id="clip112">
  <path d="M 18.40625 1 L 40.554688 18.933594 L 22.621094 41.085938 L 0.472656 23.152344 Z M 18.40625 1 "/>
</clipPath>
<clipPath id="clip113">
  <path d="M 18.40625 1 L 40.730469 19.074219 L 22.65625 41.402344 L 0.332031 23.324219 Z M 18.40625 1 "/>
</clipPath>
<clipPath id="clip105">
  <rect x="0" y="0" width="41" height="42"/>
</clipPath>
<g id="surface11" clip-path="url(#clip105)">
<g clip-path="url(#clip106)" clip-rule="nonzero">
<g clip-path="url(#clip107)" clip-rule="nonzero">
<g clip-path="url(#clip108)" clip-rule="nonzero">
<g clip-path="url(#clip109)" clip-rule="nonzero">
<path style=" stroke:none;fill-rule:nonzero;fill:rgb(0%,0%,0%);fill-opacity:1;" d="M 22.09375 24.644531 L 21.84375 22.265625 L 17.085938 22.765625 L 16.835938 20.386719 L 21.59375 19.886719 L 21.34375 17.503906 L 16.582031 18.007812 L 16.332031 15.625 L 11.570312 16.125 C 8.691406 16.429688 6.507812 18.726562 6.242188 21.5 L 1.394531 22.007812 L 1.644531 24.390625 L 6.492188 23.878906 C 7.328125 26.539062 9.945312 28.332031 12.824219 28.027344 L 17.585938 27.527344 L 17.335938 25.148438 Z M 22.09375 24.644531 "/>
</g>
</g>
</g>
</g>
<g clip-path="url(#clip110)" clip-rule="nonzero">
<g clip-path="url(#clip111)" clip-rule="nonzero">
<g clip-path="url(#clip112)" clip-rule="nonzero">
<g clip-path="url(#clip113)" clip-rule="nonzero">
<path style=" stroke:none;fill-rule:nonzero;fill:rgb(0%,0%,0%);fill-opacity:1;" d="M 39.664062 20.390625 L 39.414062 18.011719 L 34.566406 18.519531 C 33.730469 15.863281 31.117188 14.070312 28.234375 14.371094 L 23.472656 14.875 L 24.726562 26.777344 L 29.488281 26.277344 C 32.367188 25.972656 34.554688 23.675781 34.820312 20.902344 Z M 39.664062 20.390625 "/>
</g>
</g>
</g>
</g>
</g>
</defs>
<g id="surface1">
<rect x="0" y="0" width="375" height="374.999991" style="fill:rgb(100%,100%,100%);fill-opacity:1;stroke:none;"/>
<rect x="0" y="0" width="375" height="374.999991" style="fill:rgb(100%,100%,100%);fill-opacity:1;stroke:none;"/>
<rect x="0" y="0" width="375" height="374.999991" style="fill:rgb(100%,100%,100%);fill-opacity:1;stroke:none;"/>
<use xlink:href="#surface5" transform="matrix(1,0,0,1,73,127)" mask="url(#mask0)"/>
<use xlink:href="#surface8" transform="matrix(1,0,0,1,202,138)" mask="url(#mask1)"/>
<use xlink:href="#surface11" transform="matrix(1,0,0,1,164,188)" mask="url(#mask2)"/>
</g>
</svg>
